<?xml version="1.0" standalone="no"?>
<!DOCTYPE svg PUBLIC "-//W3C//DTD SVG 20010904//EN"
 "http://www.w3.org/TR/2001/REC-SVG-20010904/DTD/svg10.dtd">
<svg version="1.0" xmlns="http://www.w3.org/2000/svg"
 width="300.000000pt" height="300.000000pt" viewBox="0 0 300.000000 300.000000"
 preserveAspectRatio="xMidYMid meet">
<metadata>
Created by potrace 1.10, written by Peter Selinger 2001-2011
</metadata>
<g transform="translate(0.000000,300.000000) scale(0.100000,-0.100000)"
fill="#40be46" stroke="none">
<path d="M26 2927 c-43 -43 -36 -66 33 -115 54 -39 85 -41 107 -6 35 52 -9
125 -83 140 -26 5 -37 1 -57 -19z"/>
<path d="M1783 2909 c-17 -6 -23 -16 -23 -37 0 -60 51 -83 76 -34 23 46 -9 88
-53 71z"/>
<path d="M650 2870 c-8 -15 -6 -24 10 -40 27 -27 70 -37 81 -19 12 20 11 53
-3 67 -20 20 -76 15 -88 -8z"/>
<path d="M2799 2861 c-36 -36 -40 -85 -8 -102 59 -31 148 46 121 105 -17 38
-73 36 -113 -3z"/>
<path d="M227 2722 c-35 -38 -31 -43 159 -199 193 -158 349 -334 479 -542 130
-207 229 -272 480 -318 122 -23 421 -22 565 1 191 30 344 87 394 146 25 31 33
53 77 218 13 49 35 103 53 130 38 55 113 108 172 123 24 6 48 17 54 25 31 36
-23 114 -68 100 -11 -4 -45 -40 -76 -80 -75 -100 -112 -129 -241 -188 -265
-121 -330 -129 -442 -58 -62 39 -96 38 -169 -6 -153 -92 -239 -124 -339 -124
-124 0 -233 49 -327 148 -69 72 -167 205 -214 287 l-35 64 -37 -20 c-46 -24
-79 -18 -149 28 -66 43 -171 155 -190 202 -24 57 -51 81 -93 81 -23 0 -43 -7
-53 -18z"/>
<path d="M772 2727 c-7 -8 -15 -28 -18 -46 -6 -27 -2 -36 30 -66 21 -19 43
-35 51 -35 22 0 73 -67 85 -111 13 -47 6 -100 -16 -134 -13 -21 -11 -26 30
-82 24 -34 54 -68 67 -76 21 -15 25 -14 64 13 82 57 140 74 250 73 86 0 113
-4 193 -31 51 -18 101 -32 111 -32 10 0 47 19 82 42 103 67 184 63 391 -18 48
-19 96 -34 105 -34 10 0 47 14 83 31 53 25 88 54 190 158 81 83 145 139 183
161 95 53 120 96 79 133 -44 40 -101 10 -151 -77 -17 -29 -50 -75 -73 -101
-55 -62 -188 -161 -229 -170 -44 -10 -75 22 -89 91 -11 51 -29 69 -45 44 -16
-26 -86 -50 -146 -50 -57 0 -64 2 -94 35 -38 40 -62 102 -76 199 -16 114 -45
123 -68 22 -28 -126 -75 -156 -242 -156 -92 0 -137 -5 -213 -25 -220 -57 -303
-22 -441 189 -41 62 -71 80 -93 53z"/>
<path d="M550 2611 c-13 -25 -13 -27 6 -45 37 -37 92 -9 74 38 -12 33 -63 37
-80 7z"/>
<path d="M2780 2483 c-38 -15 -41 -68 -6 -85 51 -23 89 23 55 66 -21 27 -24
28 -49 19z"/>
<path d="M569 2081 c-192 -72 -289 -179 -260 -287 12 -45 64 -110 108 -136
l30 -17 -20 57 c-43 128 27 270 188 378 60 41 53 42 -46 5z"/>
<path d="M2571 1943 c120 -235 -406 -454 -1031 -430 -403 16 -716 114 -834
260 -27 34 -31 46 -31 103 0 35 -3 64 -6 64 -18 0 -99 -103 -110 -139 -56
-186 276 -365 781 -421 135 -15 474 -15 610 0 390 42 697 167 772 313 42 83 5
171 -102 246 -32 23 -60 41 -63 41 -3 0 4 -17 14 -37z"/>
<path d="M2875 1772 c0 -55 -6 -76 -29 -119 -85 -154 -303 -278 -631 -359
l-90 -22 65 -2 c287 -11 530 46 680 159 120 91 156 187 109 291 -18 40 -84
120 -99 120 -3 0 -5 -30 -5 -68z"/>
<path d="M410 813 c0 -528 1 -513 -78 -585 l-41 -37 42 -50 41 -49 40 20 c60
31 131 103 157 161 24 52 24 52 27 530 l3 477 -96 0 -95 0 0 -467z"/>
<path d="M700 800 l0 -481 93 3 92 3 3 213 2 212 115 0 115 0 0 75 0 75 -115
0 -115 0 0 110 0 110 140 0 c104 0 142 3 144 13 3 6 7 26 9 42 l6 31 -142 17
c-78 10 -184 26 -236 37 -52 11 -98 20 -103 20 -4 0 -8 -216 -8 -480z"/>
<path d="M2777 1038 c-40 -29 -103 -34 -188 -13 -82 20 -191 16 -250 -9 -93
-39 -142 -114 -143 -216 0 -84 28 -138 90 -172 l44 -24 -40 -18 c-49 -22 -72
-54 -72 -101 0 -44 24 -82 60 -96 15 -6 86 -14 159 -18 143 -9 176 -20 187
-65 8 -34 -8 -72 -41 -93 -20 -13 -47 -18 -104 -18 -68 0 -80 3 -103 24 -19
18 -26 34 -26 63 l0 39 -82 -3 -83 -3 -3 -55 c-7 -139 122 -219 335 -208 163
9 262 77 284 193 14 75 -6 142 -56 191 -51 49 -101 64 -217 64 -95 0 -119 9
-98 35 22 26 66 45 106 45 82 0 174 53 209 121 19 37 19 132 0 169 l-16 30 36
0 c20 0 50 6 68 14 64 29 64 29 27 90 -19 31 -39 56 -45 56 -5 0 -23 -10 -38
-22z m-226 -167 c41 -41 41 -101 0 -142 -24 -24 -38 -29 -76 -29 -94 0 -139
98 -79 169 22 27 32 31 76 31 41 0 54 -5 79 -29z"/>
<path d="M1245 1022 c-57 -17 -60 -19 -57 -47 2 -17 6 -171 8 -342 l6 -313 89
0 89 0 2 257 3 257 35 24 c28 19 43 23 76 18 l41 -5 22 75 c12 41 19 79 16 84
-4 6 -30 10 -59 10 -54 0 -101 -24 -137 -72 -16 -20 -16 -19 -28 26 -13 52
-15 53 -106 28z"/>
<path d="M1770 1031 c-82 -25 -155 -97 -190 -187 -31 -79 -34 -241 -7 -325 27
-81 81 -148 149 -182 47 -25 68 -29 132 -29 63 0 86 5 132 27 66 32 124 101
150 177 26 74 26 253 1 325 -44 125 -151 204 -276 202 -36 0 -77 -4 -91 -8z
m124 -135 c51 -21 71 -83 71 -216 0 -170 -33 -240 -112 -240 -79 0 -107 73
-101 262 4 138 15 167 69 195 30 16 33 16 73 -1z"/>
</g>
</svg>
