<svg width="18" height="19" viewBox="0 0 18 19" fill="none" xmlns="http://www.w3.org/2000/svg">
<path fill-rule="evenodd" clip-rule="evenodd" d="M7.37914 1.66504V5.66503H11.9911V4.66621L10.1095 2.70492L8.31329 0.665039H1.84479C0.825939 0.665039 0 1.56047 0 2.66504V16.665C0 17.7696 0.825939 18.665 1.84479 18.665H10.1463C11.1652 18.665 11.9911 17.7696 11.9911 16.665H11.0687C11.0687 17.2173 10.6557 17.665 10.1463 17.665H1.84479C1.33536 17.665 0.922393 17.2173 0.922393 16.665V2.66504C0.922393 2.11275 1.33536 1.66504 1.84479 1.66504H7.37914ZM8.31329 2.11324L9.45599 3.41093L10.6824 4.68934L8.31329 4.68934V2.11324Z" fill="#4172E8"/>
<path d="M6.90793 9.39355C6.47495 9.39355 6.13446 9.5599 5.88645 9.89258C5.63843 10.2253 5.51443 10.6844 5.51443 11.27C5.51443 11.883 5.63318 12.3467 5.87068 12.6611C6.11029 12.9756 6.45604 13.1328 6.90793 13.1328C7.10339 13.1328 7.29256 13.1123 7.47541 13.0713C7.65827 13.028 7.84849 12.9733 8.04605 12.9072V13.6079C7.68454 13.756 7.27469 13.8301 6.8165 13.8301C6.14182 13.8301 5.62372 13.609 5.26221 13.167C4.9007 12.7227 4.71995 12.0881 4.71995 11.2632C4.71995 10.7437 4.80717 10.2891 4.98162 9.89941C5.15817 9.50977 5.41249 9.21126 5.74458 9.00391C6.07666 8.79655 6.46655 8.69287 6.91423 8.69287C7.38504 8.69287 7.82011 8.79997 8.21945 9.01416L7.94832 9.69434C7.79279 9.61458 7.6278 9.54508 7.45335 9.48584C7.281 9.42432 7.09919 9.39355 6.90793 9.39355Z" fill="#4172E8"/>
<path d="M11.6969 12.4048C11.6969 12.8491 11.5487 13.1978 11.2524 13.4507C10.956 13.7036 10.5472 13.8301 10.026 13.8301C9.50471 13.8301 9.07804 13.7424 8.74596 13.5669V12.7944C8.95614 12.9015 9.17893 12.9858 9.41433 13.0474C9.65184 13.1089 9.87253 13.1396 10.0764 13.1396C10.3749 13.1396 10.5945 13.0781 10.7353 12.9551C10.8782 12.832 10.9497 12.6668 10.9497 12.4595C10.9497 12.2726 10.8845 12.1143 10.7542 11.9844C10.6239 11.8545 10.3549 11.7007 9.94714 11.5229C9.52678 11.3384 9.23042 11.1276 9.05807 10.8906C8.88573 10.6536 8.79955 10.3688 8.79955 10.0361C8.79955 9.61914 8.93617 9.29102 9.2094 9.05176C9.48264 8.8125 9.84941 8.69287 10.3097 8.69287C10.7511 8.69287 11.1904 8.79769 11.6275 9.00732L11.3879 9.67383C10.9781 9.48698 10.6124 9.39355 10.2908 9.39355C10.047 9.39355 9.86202 9.45166 9.73591 9.56787C9.6098 9.6818 9.54675 9.83333 9.54675 10.0225C9.54675 10.1523 9.57197 10.264 9.62241 10.3574C9.67285 10.4486 9.75588 10.5352 9.87147 10.6172C9.98707 10.6992 10.1952 10.8075 10.4957 10.9419C10.8341 11.0946 11.0821 11.237 11.2398 11.3691C11.3974 11.5013 11.513 11.6506 11.5865 11.8169C11.6601 11.9832 11.6969 12.1792 11.6969 12.4048Z" fill="#4172E8"/>
<path d="M15.9972 8.76465H15.2153L14.2537 11.8579C14.218 11.9673 14.1718 12.1359 14.115 12.3638C14.0583 12.5916 14.0162 12.7922 13.9889 12.9653C13.9721 12.8514 13.9353 12.6782 13.8786 12.4458C13.8218 12.2111 13.7682 12.0197 13.7178 11.8716L12.7562 8.76465H11.9806L13.5885 13.7617H14.383L15.9972 8.76465Z" fill="#4172E8"/>
<path fill-rule="evenodd" clip-rule="evenodd" d="M2.76718 15.665V6.66503H18V15.665H2.76718ZM3.68957 7.66503H17.0776V14.665H3.68957V7.66503Z" fill="#4172E8"/>
</svg>
