<svg width="35" height="33" viewBox="0 0 35 33" fill="none" xmlns="http://www.w3.org/2000/svg">
<path d="M15.6239 21.4392L13.8273 21.9262C13.9835 22.3675 14.1085 23.1589 14.1085 24.2243V29.4598H16.1238V23.9199C16.4988 23.4785 16.905 23.2655 17.3424 23.2655C17.5611 23.2655 17.733 23.3111 17.9204 23.4177L18.4672 21.6066C18.1548 21.4696 18.0142 21.4392 17.7174 21.4392C17.4986 21.4392 17.233 21.4848 17.0612 21.5609C16.6863 21.7435 16.2176 22.1545 15.9207 22.5502C15.9207 22.1088 15.8114 21.7588 15.6239 21.4392ZM8.68745 18.8519H8.46873V29.4445H10.5622V24.757H13.2024V23.0067H10.5622V20.5716H13.8586L13.9835 19.6433C11.9995 19.5063 10.2029 19.2019 8.68745 18.8519ZM3.79756 30.86L4.76616 31.9557C5.70352 31.5905 6.87522 30.7686 7.18768 29.4598C7.29703 29.0336 7.32828 28.7597 7.32828 27.3747V18.8671H5.21922V27.603C5.21922 28.7445 5.17235 29.1706 5.01612 29.5663C4.81303 30.0077 4.32873 30.5251 3.79756 30.86ZM22.8103 25.4875C22.8103 27.3443 22.4354 28.1357 21.5761 28.1357C21.1856 28.1357 20.7481 27.9226 20.5607 27.4965C20.4044 27.1008 20.3107 26.4311 20.3107 25.5179C20.3107 24.7418 20.3888 24.1939 20.5138 23.7677C20.67 23.2807 21.0606 22.9763 21.5449 22.9763C21.9042 22.9763 22.2167 23.1285 22.4042 23.3872C22.6854 23.7525 22.8103 24.4374 22.8103 25.4875ZM24.0445 28.5314C24.7007 27.7704 24.9975 26.842 24.9975 25.5027C24.9975 24.2395 24.7319 23.372 24.1226 22.6415C23.4665 21.8501 22.6229 21.4696 21.5293 21.4696C19.4671 21.4696 18.0923 23.0981 18.0923 25.5636C18.0923 28.0291 19.4515 29.612 21.5293 29.612C22.701 29.6272 23.4665 29.201 24.0445 28.5314ZM29.7624 24.1482C29.7624 24.8635 29.325 25.2592 28.5439 25.2592C27.8408 25.2592 27.3722 24.9396 27.3722 24.1482C27.3722 23.4177 27.8096 22.9915 28.5595 22.9915C29.3094 22.9915 29.7624 23.4177 29.7624 24.1482ZM33.3088 22.4741L32.4808 21.1804C32.0121 21.6066 31.4497 21.8501 30.9029 21.8501C30.6529 21.8501 30.5123 21.8196 29.9655 21.6827C29.4187 21.5305 29.0282 21.4848 28.5907 21.4848C26.6379 21.4848 25.3725 22.5197 25.3725 24.133C25.3725 25.2897 25.9036 26.0202 27.0128 26.3094C26.5598 26.4159 26.0755 26.6442 25.8568 26.9029C25.7005 27.0855 25.6224 27.3291 25.6224 27.6182C25.6224 27.8617 25.6849 28.0748 25.7786 28.2574C25.888 28.4249 26.0286 28.5618 26.2161 28.6379C26.5754 28.7749 27.1534 28.8662 28.0439 28.8814C28.5126 28.8814 28.7938 28.8967 28.8876 28.8967C29.4344 28.9271 29.7156 29.0184 29.9343 29.1249C30.1374 29.2467 30.2936 29.5206 30.2936 29.825C30.2936 30.1294 30.1061 30.4338 29.8093 30.6164C29.5437 30.7991 29.1063 30.8752 28.5439 30.8752C27.6221 30.8752 27.1066 30.5403 27.1066 29.9164C27.1066 29.6424 27.1378 29.5815 27.2003 29.4141H25.3568C25.2787 29.5663 25.185 29.7794 25.185 30.2055C25.185 30.7382 25.3881 31.1948 25.8099 31.5905C26.4973 32.2449 27.6221 32.4275 28.7001 32.4275C29.8874 32.4275 31.0435 32.1536 31.7153 31.4231C32.1371 30.9665 32.3245 30.4642 32.3245 29.8098C32.3245 29.1097 32.1215 28.577 31.6684 28.1357C31.1372 27.6334 30.5279 27.4508 29.3562 27.4356L28.2783 27.4204C28.0752 27.4204 27.9502 27.3443 27.9502 27.2377C27.9502 27.0247 28.2314 26.842 28.747 26.5985C28.9032 26.6137 28.9501 26.6137 29.0438 26.6137C30.6685 26.6137 31.8559 25.6397 31.8559 24.2852C31.8559 23.7677 31.6996 23.372 31.4028 23.0067C31.6528 23.0372 31.7309 23.0524 31.9184 23.0524C32.4495 23.0524 32.8713 22.885 33.3088 22.4741ZM8.15628 9.64413C5.65665 10.2377 3.95378 11.4096 3.95378 12.7489C3.95378 13.5859 4.60993 14.3469 5.6879 14.9405C5.35982 14.4382 5.18797 13.8903 5.18797 13.3424C5.2036 11.9575 6.31281 10.6638 8.15628 9.64413ZM34.5273 14.8948C34.5273 14.0121 33.9649 13.2055 33.0276 12.5358C33.1057 12.8098 33.1682 13.0837 33.1682 13.3577C33.1682 15.8689 29.5593 18.03 24.4351 18.928C25.0131 18.9888 25.6068 19.0193 26.2317 19.0193C30.8091 19.004 34.5273 17.1625 34.5273 14.8948ZM31.5747 13.5251C31.5747 12.5967 30.7623 11.7444 29.3719 11.0443C29.6999 11.4248 29.8718 11.8357 29.8718 12.2619C29.8718 14.4991 24.9975 16.3102 18.9672 16.3102C12.9524 16.3102 8.06254 14.4991 8.06254 12.2619C8.06254 11.9727 8.14066 11.6987 8.29688 11.44C7.32828 12.064 6.78149 12.7793 6.78149 13.5403C6.78149 15.9602 12.3275 17.9235 19.1703 17.9235C26.013 17.9235 31.5747 15.9297 31.5747 13.5251ZM26.1692 13.4033C23.6383 14.9861 15.8583 15.5949 12.515 13.5555C9.8904 11.9575 10.7965 9.41584 3.28201 3.84554C2.29778 3.11501 3.46948 2.33882 4.20374 2.84106C4.93801 3.3433 4.26624 3.46506 5.75039 4.9109C8.74994 7.83302 8.7187 5.20007 9.18738 6.20455C10.1872 8.2896 12.3744 10.3899 12.3744 10.3899C14.5772 11.7901 16.3269 12.0944 19.5765 9.94851C21.6386 8.59399 20.795 12.1097 25.8411 9.56803C27.6846 8.63965 27.6065 9.26364 29.4812 6.722C30.2624 5.67187 31.7465 7.52863 30.0593 7.78736C29.3875 7.8939 28.247 8.60921 27.7627 9.73544C27.0597 11.4248 27.3565 12.6728 26.1692 13.4033ZM12.1401 9.11145C11.5152 8.8375 10.859 7.80258 10.609 7.39166C11.3121 6.722 11.0309 5.61099 10.6247 5.00221C10.2341 4.39344 9.74979 4.56085 9.23424 3.99774C8.70307 3.43462 9.43734 1.97356 10.1091 3.09979C12.6244 7.31556 14.2804 5.56533 16.3269 5.3066C18.2954 5.06309 20.0451 6.11323 20.5763 3.14545C20.67 2.65843 21.1543 2.55189 21.2012 3.3433C21.2481 4.14993 21.5605 6.09801 22.6385 6.34152C23.7165 6.60025 24.5913 6.09801 24.8413 5.82406C25.0913 5.55011 25.2319 5.58055 25.3412 6.28064C25.4506 6.96552 25.7318 7.92434 27.2472 6.85898C30.3561 4.69783 29.4656 3.86076 30.6842 3.29764C31.3716 2.97804 32.4652 4.01295 30.8873 4.78914C28.6376 5.90016 28.4033 7.2699 26.9816 8.13741C24.5913 9.59847 25.3256 8.19829 21.4824 7.66561C19.9983 7.46776 19.5296 9.06579 18.3735 8.60921C15.7333 7.54385 13.8742 7.75692 12.1401 9.11145ZM20.4669 1.3039C20.5607 1.94312 20.67 1.9279 20.9044 1.97356C21.1387 2.03443 21.4355 1.66917 21.4355 1.33434C21.4512 0.984297 21.2793 0.771226 20.9356 0.786445C20.5763 0.801664 20.4513 0.969077 20.4669 1.3039ZM32.0277 2.44536C32.3089 2.70409 33.0588 2.53667 33.2307 2.33882C33.6837 1.8518 33.6993 1.56263 33.465 1.22781C33.2307 0.9082 32.7464 0.953858 32.2621 1.3039C31.7778 1.65395 31.8715 2.30838 32.0277 2.44536ZM31.8246 5.67187C31.5903 5.97626 31.5747 6.20455 31.7465 6.37196C31.934 6.55459 32.3089 6.70679 32.5745 6.50893C32.8401 6.29586 32.8401 5.99147 32.6214 5.73274C32.387 5.4588 32.0746 5.4588 31.8246 5.67187ZM8.10941 1.86702C8.46873 1.97356 8.64058 2.30838 8.93741 1.9279C9.09364 1.74527 9.10926 1.48654 8.90617 1.21259C8.78119 1.04517 8.18753 0.92342 7.93756 1.16693C7.6876 1.41044 7.92194 1.80614 8.10941 1.86702ZM0.782381 1.65395C1.43853 2.04965 1.86035 2.64321 2.36027 2.11053C2.53212 1.9279 2.73521 1.60829 2.37589 0.969078C2.11031 0.497277 1.25106 0.314644 0.95423 0.497276C0.641777 0.66469 0.266833 1.34956 0.782381 1.65395ZM6.82835 4.68261C7.03145 4.89568 7.39077 4.88046 7.60949 4.75871C7.81258 4.63695 7.78134 4.31734 7.57824 4.04339C7.45326 3.87598 7.07832 3.78466 6.82835 4.04339C6.57839 4.30212 6.68775 4.53041 6.82835 4.68261Z" fill="#40BE46"/>
</svg>
